<svg width="28" height="32" viewBox="0 0 28 32" fill="none" xmlns="http://www.w3.org/2000/svg">
<g clip-path="url(#clip0_13_360)">
<path d="M14 16C16.1217 16 18.1566 15.1571 19.6569 13.6569C21.1571 12.1566 22 10.1217 22 8C22 5.87827 21.1571 3.84344 19.6569 2.34315C18.1566 0.842855 16.1217 0 14 0C11.8783 0 9.84344 0.842855 8.34315 2.34315C6.84285 3.84344 6 5.87827 6 8C6 10.1217 6.84285 12.1566 8.34315 13.6569C9.84344 15.1571 11.8783 16 14 16ZM11.1438 19C4.9875 19 0 23.9875 0 30.1437C0 31.1687 0.83125 32 1.85625 32H26.1437C27.1687 32 28 31.1687 28 30.1437C28 23.9875 23.0125 19 16.8563 19H11.1438Z" fill="white"/>
</g>
<defs>
<clipPath id="clip0_13_360">
<rect width="28" height="32" fill="white"/>
</clipPath>
</defs>
</svg>
